<svg width="22" height="22" viewBox="0 0 22 22" fill="none" xmlns="http://www.w3.org/2000/svg">
<path d="M20.275 21.5C17.8444 21.5 15.4431 20.9703 13.0708 19.911C10.6986 18.8517 8.54028 17.3494 6.59583 15.4042C4.65139 13.4589 3.1495 11.3006 2.09017 8.92917C1.03083 6.55772 0.500778 4.15633 0.5 1.725C0.5 1.375 0.616667 1.08333 0.85 0.85C1.08333 0.616667 1.375 0.5 1.725 0.5H6.45C6.72222 0.5 6.96528 0.592555 7.17917 0.777667C7.39306 0.962778 7.51944 1.18133 7.55833 1.43333L8.31667 5.51667C8.35556 5.82778 8.34583 6.09028 8.2875 6.30417C8.22917 6.51806 8.12222 6.70278 7.96667 6.85833L5.1375 9.71667C5.52639 10.4361 5.988 11.1311 6.52233 11.8015C7.05667 12.4719 7.64506 13.1187 8.2875 13.7417C8.89028 14.3444 9.52222 14.9037 10.1833 15.4193C10.8444 15.935 11.5444 16.4063 12.2833 16.8333L15.025 14.0917C15.2 13.9167 15.4287 13.7856 15.711 13.6985C15.9933 13.6114 16.2702 13.5869 16.5417 13.625L20.5667 14.4417C20.8389 14.5194 21.0625 14.6606 21.2375 14.8652C21.4125 15.0697 21.5 15.298 21.5 15.55V20.275C21.5 20.625 21.3833 20.9167 21.15 21.15C20.9167 21.3833 20.625 21.5 20.275 21.5Z" fill="white"/>
</svg>
