<svg width="28" height="28" viewBox="0 0 28 28" fill="none" xmlns="http://www.w3.org/2000/svg">
<path d="M14.0005 27.6608C21.4604 27.6608 27.6613 21.4733 27.6613 14.0001C27.6613 6.54027 21.447 0.339355 13.9872 0.339355C6.5139 0.339355 0.339844 6.54027 0.339844 14.0001C0.339844 21.4733 6.52733 27.6608 14.0005 27.6608ZM14.0005 25.384C7.6791 25.384 2.62996 20.3215 2.62996 14.0001C2.62996 7.69204 7.66573 2.61616 13.9872 2.61616C20.2952 2.61616 25.371 7.69204 25.3845 14.0001C25.398 20.3215 20.3086 25.384 14.0005 25.384ZM12.313 20.6966C12.755 20.6966 13.1166 20.4822 13.3978 20.0671L20.014 9.66084C20.1746 9.39296 20.3353 9.0849 20.3353 8.79027C20.3353 8.17421 19.7996 7.79918 19.2372 7.79918C18.8756 7.79918 18.5407 8.0001 18.2997 8.40187L12.2461 18.0849L9.13893 14.0671C8.8443 13.6653 8.52287 13.518 8.16127 13.518C7.57196 13.518 7.10322 14.0001 7.10322 14.6028C7.10322 14.8974 7.22373 15.1787 7.41127 15.4331L11.1613 20.0671C11.5229 20.509 11.871 20.6966 12.313 20.6966Z" fill="white"/>
</svg>
