<svg width="28" height="28" viewBox="0 0 28 28" fill="none" xmlns="http://www.w3.org/2000/svg">
<path d="M15.3708 0.753906C16.8708 0.757906 17.6321 0.765906 18.2894 0.784573L18.5481 0.793906C18.8468 0.804573 19.1414 0.817906 19.4974 0.833906C20.9161 0.900573 21.8841 1.12457 22.7334 1.45391C23.6134 1.79257 24.3548 2.25124 25.0961 2.99124C25.7744 3.65755 26.299 4.46387 26.6334 5.35391C26.9628 6.20324 27.1868 7.17124 27.2534 8.59124C27.2694 8.94591 27.2828 9.24057 27.2934 9.54057L27.3014 9.79924C27.3214 10.4552 27.3294 11.2166 27.3321 12.7166L27.3334 13.7112V15.4579C27.3367 16.4304 27.3265 17.403 27.3028 18.3752L27.2948 18.6339C27.2841 18.9339 27.2708 19.2286 27.2548 19.5832C27.1881 21.0032 26.9614 21.9699 26.6334 22.8206C26.299 23.7106 25.7744 24.5169 25.0961 25.1832C24.4298 25.8615 23.6235 26.3862 22.7334 26.7206C21.8841 27.0499 20.9161 27.2739 19.4974 27.3406L18.5481 27.3806L18.2894 27.3886C17.6321 27.4072 16.8708 27.4166 15.3708 27.4192L14.3761 27.4206H12.6308C11.6578 27.424 10.6848 27.4138 9.71211 27.3899L9.45344 27.3819C9.13692 27.3699 8.82047 27.3561 8.50411 27.3406C7.08544 27.2739 6.11744 27.0499 5.26677 26.7206C4.37721 26.386 3.57136 25.8613 2.90544 25.1832C2.2267 24.5171 1.70159 23.7107 1.36677 22.8206C1.03744 21.9712 0.813441 21.0032 0.746774 19.5832L0.706774 18.6339L0.700107 18.3752C0.675529 17.403 0.664417 16.4305 0.666774 15.4579V12.7166C0.663083 11.744 0.672862 10.7715 0.696107 9.79924L0.705441 9.54057C0.716107 9.24057 0.729441 8.94591 0.745441 8.59124C0.812107 7.17124 1.03611 6.20457 1.36544 5.35391C1.70103 4.4635 2.22707 3.65715 2.90677 2.99124C3.57231 2.3133 4.37769 1.78867 5.26677 1.45391C6.11744 1.12457 7.08411 0.900573 8.50411 0.833906C8.85877 0.817906 9.15477 0.804573 9.45344 0.793906L9.71211 0.785906C10.6844 0.762217 11.6569 0.751993 12.6294 0.755239L15.3708 0.753906ZM14.0001 7.42057C12.232 7.42057 10.5363 8.12295 9.28606 9.37319C8.03582 10.6234 7.33344 12.3191 7.33344 14.0872C7.33344 15.8553 8.03582 17.551 9.28606 18.8013C10.5363 20.0515 12.232 20.7539 14.0001 20.7539C15.7682 20.7539 17.4639 20.0515 18.7142 18.8013C19.9644 17.551 20.6668 15.8553 20.6668 14.0872C20.6668 12.3191 19.9644 10.6234 18.7142 9.37319C17.4639 8.12295 15.7682 7.42057 14.0001 7.42057ZM14.0001 10.0872C14.5254 10.0872 15.0456 10.1905 15.5309 10.3915C16.0162 10.5924 16.4572 10.887 16.8287 11.2583C17.2002 11.6297 17.4949 12.0706 17.696 12.5559C17.8971 13.0412 18.0007 13.5613 18.0008 14.0866C18.0009 14.6119 17.8975 15.132 17.6965 15.6174C17.4956 16.1027 17.201 16.5437 16.8297 16.9152C16.4583 17.2867 16.0174 17.5814 15.5321 17.7825C15.0469 17.9836 14.5267 18.0872 14.0014 18.0872C12.9406 18.0872 11.9232 17.6658 11.173 16.9157C10.4229 16.1655 10.0014 15.1481 10.0014 14.0872C10.0014 13.0264 10.4229 12.009 11.173 11.2588C11.9232 10.5087 12.9406 10.0872 14.0014 10.0872M21.0014 5.42057C20.5594 5.42057 20.1355 5.59617 19.8229 5.90873C19.5104 6.22129 19.3348 6.64521 19.3348 7.08724C19.3348 7.52927 19.5104 7.95319 19.8229 8.26575C20.1355 8.57831 20.5594 8.75391 21.0014 8.75391C21.4435 8.75391 21.8674 8.57831 22.18 8.26575C22.4925 7.95319 22.6681 7.52927 22.6681 7.08724C22.6681 6.64521 22.4925 6.22129 22.18 5.90873C21.8674 5.59617 21.4435 5.42057 21.0014 5.42057Z" fill="white"/>
</svg>
