<svg width="24" height="20" viewBox="0 0 24 20" fill="none" xmlns="http://www.w3.org/2000/svg">
<path d="M2.66665 19.3332C2.02498 19.3332 1.47587 19.1049 1.01931 18.6483C0.562757 18.1918 0.334091 17.6423 0.333313 16.9998V2.99984C0.333313 2.35817 0.56198 1.80906 1.01931 1.3525C1.47665 0.895948 2.02576 0.667282 2.66665 0.666504H21.3333C21.975 0.666504 22.5245 0.89517 22.9818 1.3525C23.4391 1.80984 23.6674 2.35895 23.6666 2.99984V16.9998C23.6666 17.6415 23.4384 18.191 22.9818 18.6483C22.5253 19.1057 21.9758 19.3339 21.3333 19.3332H2.66665ZM12 11.1665L21.3333 5.33317V2.99984L12 8.83317L2.66665 2.99984V5.33317L12 11.1665Z" fill="white"/>
</svg>
