<svg width="24" height="24" viewBox="0 0 24 24" fill="none" xmlns="http://www.w3.org/2000/svg">
<path d="M22.3373 2.212C22.4526 2.08015 22.5408 1.92689 22.5969 1.76095C22.653 1.59502 22.6758 1.41966 22.6641 1.2449C22.6524 1.07014 22.6064 0.899401 22.5287 0.742421C22.451 0.585442 22.3432 0.445301 22.2113 0.33C22.0795 0.214699 21.9262 0.126497 21.7603 0.0704289C21.5943 0.0143607 21.419 -0.00847517 21.2442 0.00322501C21.0695 0.0149252 20.8987 0.0609325 20.7417 0.13862C20.5848 0.216307 20.4446 0.324153 20.3293 0.456L13.516 8.24267L7.73332 0.533334C7.60912 0.367739 7.44808 0.233334 7.26294 0.140764C7.0778 0.0481933 6.87365 0 6.66665 0H1.33332C1.0857 0 0.842979 0.0689529 0.632344 0.199132C0.421709 0.329312 0.251486 0.515574 0.140749 0.737049C0.0300117 0.958523 -0.0168643 1.20646 0.00537297 1.45307C0.0276103 1.69969 0.118083 1.93524 0.266652 2.13333L8.84932 13.576L1.66265 21.7893C1.54735 21.9212 1.45915 22.0744 1.40308 22.2404C1.34701 22.4063 1.32418 22.5817 1.33588 22.7564C1.34758 22.9312 1.39358 23.1019 1.47127 23.2589C1.54896 23.4159 1.6568 23.556 1.78865 23.6713C1.9205 23.7866 2.07377 23.8748 2.2397 23.9309C2.40563 23.987 2.58099 24.0098 2.75575 23.9981C2.93051 23.9864 3.10125 23.9404 3.25823 23.8627C3.41521 23.785 3.55535 23.6772 3.67065 23.5453L10.484 15.7573L16.2667 23.4667C16.3908 23.6323 16.5519 23.7667 16.737 23.8592C16.9222 23.9518 17.1263 24 17.3333 24H22.6667C22.9143 24 23.157 23.931 23.3676 23.8009C23.5783 23.6707 23.7485 23.4844 23.8592 23.263C23.97 23.0415 24.0168 22.7935 23.9946 22.5469C23.9724 22.3003 23.8819 22.0648 23.7333 21.8667L15.1507 10.424L22.3373 2.212Z" fill="white"/>
</svg>
