<svg width="32" height="25" viewBox="0 0 32 25" fill="none" xmlns="http://www.w3.org/2000/svg">
<path d="M31.7904 5.38727C31.7904 2.57477 29.7216 0.312265 27.1654 0.312265C23.7029 0.15039 20.1716 0.0878906 16.5629 0.0878906H15.4379C11.8379 0.0878906 8.30038 0.150391 4.83788 0.312891C2.28788 0.312891 0.21913 2.58789 0.21913 5.40039C0.0628801 7.62477 -0.00336993 9.84977 0.000380068 12.0748C-0.00586993 14.2998 0.0649634 16.5269 0.21288 18.756C0.21288 21.5685 2.28163 23.8498 4.83163 23.8498C8.46913 24.0185 12.2004 24.0935 15.9941 24.0873C19.7941 24.0998 23.515 24.0206 27.1566 23.8498C29.7129 23.8498 31.7816 21.5685 31.7816 18.756C31.9316 16.5248 32.0004 14.2998 31.9941 12.0685C32.0083 9.84352 31.9404 7.61643 31.7904 5.38727ZM12.9379 18.206V5.92477L22.0004 12.0623L12.9379 18.206Z" fill="white"/>
</svg>
